
<svg width="64" height="64" viewBox="0 0 200 200" fill="none" xmlns="http://www.w3.org/2000/svg">
<rect width="200" height="200" fill="#1A0F3B"/>
<g transform="translate(30, 30)">
  <path d="M107.335 26.8195C104.067 24.0478 99.6677 24.4534 96.6013 27.6379L77.1725 47.8927C75.195 50.0448 72.3785 50.6934 69.8323 49.6745L68.0404 49.0259C62.2877 46.964 55.9382 49.0259 53.0291 54.2494L49.5589 60.4633C47.5814 64.0896 48.1592 68.6381 50.7054 71.6344L54.479 76.0654C57.0252 79.0617 61.4247 79.6213 64.7918 77.5594L83.0274 66.4397C88.7801 63.1019 96.0045 65.3995 98.0826 71.405L100.06 77.1647C101.409 81.2973 98.7768 85.6164 94.585 86.5007L85.733 88.4141C81.8447 89.2984 78.9356 92.6362 78.6321 96.7688L78.0352 104.52C77.4384 112.272 83.7879 118.716 91.2373 118.716H92.7514C98.9072 118.716 104.067 113.845 104.067 107.95V91.4708C104.067 88.2991 106.601 85.6164 109.869 85.6164H115.238C119.43 85.6164 122.9 82.2786 122.9 78.146L121.707 64.0896C121.11 59.7705 117.336 56.4327 113.145 55.7841L111.353 55.3785C108.807 54.73 106.83 52.1982 107.335 49.6745L109.127 40.4514C109.927 36.2107 109.127 31.7167 107.335 26.8195Z" fill="#FFA500"/>
  <path d="M92.4998 39.0001C92.4998 42.456 89.6998 45.256 86.2438 45.256C82.7879 45.256 79.9879 42.456 79.9879 39.0001C79.9879 35.5441 82.7879 32.7441 86.2438 32.7441C89.6998 32.7441 92.4998 35.5441 92.4998 39.0001Z" fill="#1A0F3B"/>
  <path d="M40.9733 25.3653L30.8961 30.654C29.4096 31.4323 28.7351 33.1982 29.3089 34.7291L33.7562 45.791C34.33 47.3219 35.9661 48.1769 37.4525 47.3986L47.5297 42.11C49.0162 41.3317 49.6907 39.5658 49.1169 38.0349L44.6696 26.973C44.0958 25.4421 42.4597 24.5871 40.9733 25.3653Z" fill="#FFA500"/>
  <path d="M20.1034 47.3335L10.0262 52.6222C8.53972 53.4005 7.86525 55.1664 8.43904 56.6973L12.8863 67.7592C13.4601 69.2901 15.0962 70.1451 16.5827 69.3668L26.6599 64.0781C28.1463 63.2998 28.8208 61.5339 28.247 60.003L23.7997 48.9411C23.2259 47.4102 21.5898 46.5552 20.1034 47.3335Z" fill="#FFA500"/>
  <path d="M52.0343 9.2533L41.9571 14.542C40.4706 15.3203 39.7961 17.0862 40.37 18.6171L44.8173 29.679C45.3911 31.2099 47.0272 32.0649 48.5136 31.2866L58.5908 25.9979C60.0773 25.2196 60.7518 23.4537 60.178 21.9228L55.7307 10.8609C55.1569 9.33001 53.5208 8.47502 52.0343 9.2533Z" fill="#FFA500"/>
  <path d="M146.973 25.3653L136.896 30.654C135.41 31.4323 134.735 33.1982 135.309 34.7291L139.756 45.791C140.33 47.3219 141.966 48.1769 143.453 47.3986L153.53 42.11C155.016 41.3317 155.691 39.5658 155.117 38.0349L150.67 26.973C150.096 25.4421 148.46 24.5871 146.973 25.3653Z" fill="#FFA500"/>
  <path d="M126.103 47.3335L116.026 52.6222C114.54 53.4005 113.865 55.1664 114.439 56.6973L118.886 67.7592C119.46 69.2901 121.096 70.1451 122.583 69.3668L132.66 64.0781C134.146 63.2998 134.821 61.5339 134.247 60.003L129.8 48.9411C129.226 47.4102 127.59 46.5552 126.103 47.3335Z" fill="#FFA500"/>
  <path d="M158.034 9.2533L147.957 14.542C146.471 15.3203 145.796 17.0862 146.37 18.6171L150.817 29.679C151.391 31.2099 153.027 32.0649 154.514 31.2866L164.591 25.9979C166.077 25.2196 166.752 23.4537 166.178 21.9228L161.731 10.8609C161.157 9.33001 159.521 8.47502 158.034 9.2533Z" fill="#FFA500"/>
</g>
<text x="50%" y="165" dominant-baseline="middle" text-anchor="middle" font-family="Poppins, sans-serif" font-size="35" font-weight="bold" fill="#FFA500">RAFFLES</text>
</svg>
